Coordinates
version=1
nRows=29
nColumns=24
inDegrees=yes

Units are S.I. units (second, meters, Newtons, ...)
Angles are in degrees.

endheader
time	pelvis_tilt	pelvis_list	pelvis_rotation	pelvis_tx	pelvis_ty	pelvis_tz	hip_flexion_r	hip_adduction_r	hip_rotation_r	knee_angle_r	ankle_angle_r	subtalar_angle_r	mtp_angle_r	hip_flexion_l	hip_adduction_l	hip_rotation_l	knee_angle_l	ankle_angle_l	subtalar_angle_l	mtp_angle_l	lumbar_extension	lumbar_bending	lumbar_rotation
      0.47100000	     -2.00934790	      5.73919091	     -1.17060122	     -0.81316561	      1.05399909	      0.30792417	     25.64827499	     -1.98720814	     -7.15830293	     -3.72057766	      6.76521484	     -0.19128078	      0.11842103	     -9.71589396	     10.67575977	     -1.34544178	     -8.07131253	     10.27603827	      0.08176661	      0.14736759	      5.48413151	     -4.56139337	     -1.15334636
      0.47516667	     -2.05219748	      5.78624806	     -1.08975200	     -0.80736301	      1.05352844	      0.30783973	     25.61757945	     -2.01021460	     -7.02679957	     -3.90471698	      6.69229882	     -0.12670823	      0.12184158	     -9.78248055	     10.68648039	     -1.29702760	     -8.53955727	     10.17459889	      0.09161622	      0.13888216	      5.48664580	     -4.53284222	     -1.19996722
      0.47933333	     -2.08805776	      5.80179778	     -1.07832301	     -0.80135693	      1.05307035	      0.30790637	     25.57108768	     -1.96831710	     -6.79895576	     -4.12886402	      6.61525839	      0.02617596	      0.13882661	     -9.85588071	     10.66089644	     -1.35238844	     -9.00405155	      9.93233273	      0.27364412	      0.11234182	      5.49066424	     -4.61277803	     -1.37012335
      0.48350000	     -2.05025255	      5.79066789	     -1.11304499	     -0.79523989	      1.05273223	      0.30807745	     25.44515213	     -1.88067627	     -6.57480397	     -4.42122088	      6.67913033	      0.08314239	      0.16722324	     -9.98159888	     10.60369599	     -1.63264899	     -9.52835896	      9.84716093	      0.60420332	      0.09125265	      5.56754436	     -4.62863413	     -1.55296115
      0.48766667	     -2.02522687	      5.79831276	     -1.06786228	     -0.78918285	      1.05241765	      0.30797917	     25.33819303	     -1.86765592	     -6.43250132	     -4.76307669	      6.64688239	      0.10156775	      0.17206787	    -10.07905834	     10.56252743	     -1.62464006	    -10.09812452	      9.80225785	      0.65973571	      0.09035197	      5.64661786	     -4.57701488	     -1.56795723
      0.49183333	     -1.99765286	      5.80300436	     -1.11862067	     -0.78309655	      1.05207985	      0.30833564	     25.21894170	     -1.77847791	     -5.99508196	     -5.10378751	      6.56879906	      0.10455131	      0.20246239	    -10.12053520	     10.49081788	     -2.01877765	    -10.75307407	      9.60350625	      1.30930569	      0.09691640	      5.55003078	     -4.60745510	     -1.66263660
      0.49600000	     -1.87795092	      5.76276309	     -1.19307449	     -0.77687857	      1.05191408	      0.30874585	     24.98173382	     -1.63752964	     -5.58939948	     -5.44606588	      6.42534135	     -0.17365712	      0.24894446	    -10.24665544	     10.36252728	     -2.47795981	    -11.45183923	      9.60973137	      2.16758573	      0.13068145	      5.60262060	     -4.62432100	     -1.71661678
      0.50016667	     -1.81965086	      5.76670418	     -1.14650202	     -0.77075959	      1.05170802	      0.30860991	     24.83188793	     -1.63529726	     -5.42180132	     -5.86421154	      6.36362049	     -0.17679468	      0.25496917	    -10.29148725	     10.29685104	     -2.47975550	    -12.19656562	      9.54536700	      2.22380245	      0.13579411	      5.67784188	     -4.53909083	     -1.72114239
      0.50433333	     -1.72683810	      5.72601068	     -1.25717226	     -0.76456793	      1.05151295	      0.30937725	     24.60109456	     -1.44987553	     -4.73334993	     -6.18231188	      5.99454276	     -0.92095355	      0.35502102	    -10.29825964	     10.12080287	     -3.11973920	    -13.06082596	      9.55891704	      3.53305954	      0.27489475	      5.59608132	     -4.51056670	     -1.70434603
      0.50850000	     -1.65007878	      5.72114973	     -1.20892912	     -0.75844393	      1.05136985	      0.30926493	     24.42507983	     -1.44487435	     -4.58136266	     -6.61112895	      5.89904531	     -0.89151815	      0.36199416	    -10.28315857	     10.02416225	     -3.18308721	    -13.95671846	      9.42393821	      3.58334311	      0.28308662	      5.66189172	     -4.44323950	     -1.70436293
      0.51266667	     -1.56686699	      5.71215091	     -1.33712299	     -0.75231353	      1.05117511	      0.30981201	     24.25550673	     -1.32085334	     -4.14358989	     -7.02788460	      5.35848937	     -1.10851477	      0.41010478	    -10.20885928	      9.89336172	     -3.72902422	    -14.90506464	      8.85075471	      4.54869343	      0.37449585	      5.56484243	     -4.47634527	     -1.71284709
      0.51683333	     -1.47299140	      5.61963766	     -1.35501007	     -0.74602469	      1.05111560	      0.31042876	     23.97794034	     -1.13551498	     -3.59880344	     -7.30618986	      4.92650142	     -1.78659996	      0.49708995	    -10.11769508	      9.61613582	     -4.20685381	    -15.99057114	      8.75240534	      5.58832485	      0.57039279	      5.55823979	     -4.42001420	     -1.67415849
      0.52100000	     -1.43330009	      5.57705440	     -1.32657552	     -0.73986886	      1.05097544	      0.31052311	     23.83387286	     -1.07123590	     -3.47620582	     -7.74069780	      4.73889568	     -1.84142849	      0.51686904	     -9.92460399	      9.43096512	     -4.45980068	    -17.13405623	      8.52650877	      5.76718878	      0.61423338	      5.46924416	     -4.31465109	     -1.68148411
      0.52516667	     -1.32077868	      5.54854000	     -1.43723350	     -0.73379719	      1.05087623	      0.31098531	     23.62449245	     -0.95664893	     -3.10455896	     -8.14519268	      4.13650841	     -2.23106940	      0.56923970	     -9.76730889	      9.25197235	     -4.87444914	    -18.29729055	      7.91211926	      6.74983528	      0.76131008	      5.48286270	     -4.24394369	     -1.67830247
      0.52933333	     -1.26415443	      5.47019393	     -1.47686006	     -0.72766191	      1.05076039	      0.31150211	     23.43572510	     -0.80184342	     -2.74208565	     -8.50786822	      3.65385998	     -2.82501968	      0.63573923	     -9.49861529	      8.97686932	     -5.29870269	    -19.60453817	      7.57290407	      7.62374409	      0.96397154	      5.44865341	     -4.12134690	     -1.66178813
      0.53350000	     -1.14737209	      5.32903545	     -1.46447779	     -0.72140749	      1.05081208	      0.31208924	     23.12158184	     -0.59605583	     -2.32774360	     -8.77994167	      3.15767412	     -3.48741334	      0.74079118	     -9.27509108	      8.59833455	     -5.65423450	    -20.96170377	      7.23385262	      8.43896750	      1.28848718	      5.49122308	     -4.08579916	     -1.60108274
      0.53766667	     -1.09930840	      5.23908395	     -1.47175859	     -0.71533365	      1.05070663	      0.31226357	     22.97303861	     -0.48287744	     -2.25608437	     -9.22079568	      2.95982631	     -3.52888854	      0.76287118	     -8.91952361	      8.32425776	     -5.92053745	    -22.39874881	      6.89154338	      8.63876592	      1.35479904	      5.35044056	     -3.91523624	     -1.61757333
      0.54183333	     -1.01098499	      5.15398589	     -1.51684597	     -0.70934280	      1.05064993	      0.31265333	     22.77712828	     -0.35124150	     -2.03228666	     -9.62487158	      2.38598306	     -3.93156672	      0.81742808	     -8.56796342	      8.03075758	     -6.18579542	    -23.84938354	      6.01324198	      9.56508923	      1.55436147	      5.35417223	     -3.72863583	     -1.61174875
      0.54600000	     -0.95016364	      4.97884970	     -1.55818166	     -0.70319557	      1.05058276	      0.31342519	     22.54341139	     -0.08482967	     -1.61245665	     -9.92576299	      1.82515353	     -4.97172039	      0.98766559	     -8.15253945	      7.58268727	     -6.58234647	    -25.42800894	      5.71786278	     10.45075409	      2.18649990	      5.39276272	     -3.59530451	     -1.54466499
      0.55016667	     -0.87497745	      4.81602056	     -1.55555338	     -0.69714934	      1.05055530	      0.31363915	     22.34595547	      0.09073488	     -1.58547070	    -10.34212159	      1.64847545	     -4.92413136	      1.01246205	     -7.71847008	      7.19696160	     -6.77807668	    -27.03581042	      5.21123454	     10.65776677	      2.26677600	      5.25661329	     -3.41451538	     -1.55389659
      0.55433333	     -0.77941184	      4.67600651	     -1.54984684	     -0.69124934	      1.05054718	      0.31380314	     22.13908811	      0.22824475	     -1.54776469	    -10.75990827	      1.26058557	     -5.12962292	      1.06073911	     -7.26600783	      6.83627857	     -6.86753681	    -28.65273621	      4.19468884	     11.34782679	      2.45588271	      5.22997660	     -3.10741744	     -1.55464792
      0.55850000	     -0.72421042	      4.48170337	     -1.54453248	     -0.68528683	      1.05049168	      0.31410487	     21.95018922	      0.43855727	     -1.46535035	    -11.14652558	      0.95280389	     -5.42303180	      1.11225783	     -6.73871956	      6.39540747	     -6.99918802	    -30.34951051	      3.47569641	     11.87999315	      2.67094650	      5.19523318	     -2.83916007	     -1.54618424
      0.56266667	     -0.65439707	      4.26964233	     -1.54425506	     -0.67935557	      1.05046874	      0.31440451	     21.74391252	      0.66314079	     -1.42634907	    -11.53104506	      0.67889412	     -5.69093204	      1.16268691	     -6.19803876	      5.93474826	     -7.10171746	    -32.08143106	      2.77713786	     12.33900632	      2.88669730	      5.15871077	     -2.56593658	     -1.53215712
      0.56683333	     -0.57636631	      4.02881677	     -1.53797174	     -0.67345249	      1.05046978	      0.31464224	     21.52561043	      0.90576644	     -1.44459248	    -11.91289115	      0.43677903	     -5.93589644	      1.21529952	     -5.63789896	      5.44670712	     -7.16629387	    -33.84770050	      2.06449951	     12.76338196	      3.11319752	      5.11592120	     -2.26111159	     -1.51623164
      0.57100000	     -0.49937998	      3.78897298	     -1.54593173	     -0.66765274	      1.05046098	      0.31488057	     21.31428326	      1.14664241	     -1.45231003	    -12.29991834	      0.26060781	     -6.07577304	      1.25800038	     -5.04548219	      4.96577541	     -7.19638893	    -35.64322968	      1.42133985	     13.07088685	      3.29273708	      5.03138980	     -1.94222291	     -1.50739176
      0.57516667	     -0.42376060	      3.50466831	     -1.54329777	     -0.66176406	      1.05048805	      0.31508585	     21.09443503	      1.42696120	     -1.61668470	    -12.68335484	      0.07716374	     -6.28061664	      1.31594599	     -4.44066435	      4.43813679	     -7.20462146	    -37.43514691	      0.65519462	     13.42158439	      3.53953099	      5.02501960	     -1.61580953	     -1.47148506
      0.57933333	     -0.35450282	      3.25434158	     -1.55528445	     -0.65614313	      1.05048246	      0.31524908	     20.88701175	      1.66447653	     -1.60465905	    -13.04969664	     -0.01973948	     -6.31443058	      1.35361173	     -3.78415329	      3.96318055	     -7.14562097	    -39.27206494	      0.12291617	     13.59405611	      3.68814531	      4.90362951	     -1.24787407	     -1.46886050
      0.58350000	     -0.28375719	      2.97252083	     -1.54644446	     -0.65047583	      1.05051830	      0.31538899	     20.66700584	      1.92735366	     -1.72325035	    -13.40869139	     -0.08771829	     -6.35329655	      1.39094550	     -3.11520273	      3.45562025	     -7.05526344	    -41.09879806	     -0.49352562	     13.76740976	      3.83055806	      4.81353730	     -0.86936142	     -1.44817654
      0.58766667	     -0.23619315	      2.66149860	     -1.52445778	     -0.64472927	      1.05057341	      0.31541479	     20.46492207	      2.20683242	     -2.01424748	    -13.76820857	     -0.13828854	     -6.42211771	      1.44684432	     -2.41457074	      2.93291303	     -6.92617032	    -42.89982132	     -1.16364067	     13.91205473	      4.04201215	      4.81262434	     -0.46989918	     -1.39476874
